<?xml version="1.0" standalone="no"?><!DOCTYPE svg PUBLIC "-//W3C//DTD SVG 1.1//EN" "http://www.w3.org/Graphics/SVG/1.1/DTD/svg11.dtd"><svg t="1595259309147" class="icon" viewBox="0 0 1024 1024" version="1.1" xmlns="http://www.w3.org/2000/svg" p-id="2245" xmlns:xlink="http://www.w3.org/1999/xlink" width="200" height="200"><defs><style type="text/css"></style></defs><path d="M0 0m70.62069 0l882.75862 0q70.62069 0 70.62069 70.62069l0 882.75862q0 70.62069-70.62069 70.62069l-882.75862 0q-70.62069 0-70.62069-70.62069l0-882.75862q0-70.62069 70.62069-70.62069Z" fill="#3BBAF1" p-id="2246"></path><path d="M820.082759 476.689655l-282.482759-272.948965a31.426207 31.426207 0 0 0-22.245517-9.533793 37.958621 37.958621 0 0 0-22.245517 7.944827L204.270345 476.689655a31.955862 31.955862 0 0 0-7.944828 35.310345 31.426207 31.426207 0 0 0 28.60138 19.067586h50.846896v266.593104a31.955862 31.955862 0 0 0 31.77931 31.77931h409.423449a31.955862 31.955862 0 0 0 31.77931-31.77931v-266.593104h49.081379A31.426207 31.426207 0 0 0 826.438621 512a28.601379 28.601379 0 0 0-6.355862-35.310345zM559.845517 797.66069h-95.161379v-138.063449h95.161379z m157.131035 0h-125.351724v-138.063449a31.955862 31.955862 0 0 0-31.779311-31.77931h-95.161379a31.955862 31.955862 0 0 0-31.77931 31.77931v138.063449h-125.351725v-266.593104h409.423449z m-490.46069-298.372414l288.838621-272.948966 282.482758 272.948966z" fill="#FFFFFF" p-id="2247"></path></svg>